# xmcd
#
# Track frame offsets: 
#        150
#        19715
#        51977
#        67344
#        80715
#        94863
#        113180
#        125509
#        145987
#        162889
#        177973
#        201376
#        211487
#
# Disc length: 3136 seconds
#
# Revision: 3
# Processed by: cddbd v1.5.2PL0 Copyright (c) Steve Scherf et al.
# Submitted via: ExactAudioCopyFreeDBPlugin 1.0
#
DISCID=c70c3e0d
DTITLE=Tommy Schneller - Blown Away
DYEAR=1997
DGENRE=Blues
TTITLE0=Never make your move to soon
TTITLE1=Part time love
TTITLE2=Paint my mailbox blue
TTITLE3=City of Detroit
TTITLE4=Don't touch me baby
TTITLE5=T-Bone boogie
TTITLE6=Goose grease
TTITLE7=Too through with you
TTITLE8=Blown away
TTITLE9=Labour of love
TTITLE10=I need your love so bad
TTITLE11=Choo Choo Ch'Boogie
TTITLE12=Don't you know my name
EXTD=Out Of Space Records\nBlues Series #2
EXTT0=
EXTT1=
EXTT2=
EXTT3=
EXTT4=
EXTT5=
EXTT6=
EXTT7=
EXTT8=
EXTT9=
EXTT10=
EXTT11=
EXTT12=
PLAYORDER=
